# xmcd
#
# Track frame offsets:
# 150
# 15000
# 33711
# 50262
# 67758
# 85821
# 102210
# 126078
# 141387
# 155319
# 170250
# 187314
# 204309
# 223444
# 239235
# 253566
# 267689
# 284373
# 300879
# 320127
#
# Disc length: 4509 seconds
#
# Revision: 0
# Processed by: cddbd v1.5.1PL2 Copyright (c) Steve Scherf et al.
# Submitted via: Audion 3.0.2 (http://www.panic.com/audion/)
#
DISCID=27119b14
DTITLE=justin - justin
DYEAR=1900
DGENRE=
TTITLE0=a
TTITLE1=a
TTITLE2=a
TTITLE3=a
TTITLE4=a
TTITLE5=a
TTITLE6=a
TTITLE7=a
TTITLE8=a
TTITLE9=a
TTITLE10=a
TTITLE11=a
TTITLE12=a
TTITLE13=a
TTITLE14=a
TTITLE15=a
TTITLE16=a
TTITLE17=a
TTITLE18=a
TTITLE19=a
EXTD=
EXTT0=
EXTT1=
EXTT2=
EXTT3=
EXTT4=
EXTT5=
EXTT6=
EXTT7=
EXTT8=
EXTT9=
EXTT10=
EXTT11=
EXTT12=
EXTT13=
EXTT14=
EXTT15=
EXTT16=
EXTT17=
EXTT18=
EXTT19=
PLAYORDER=
